<svg version="1.2" xmlns="http://www.w3.org/2000/svg" viewBox="0 0 333 165" width="600" height="297">
	<title>LOGO FAST TRACK - WHITE GOLD-svg</title>
	<style>
		.s0 { fill: #ffffff;stroke: #000000;stroke-miterlimit:10 } 
		.s1 { fill: #08a94b;stroke: #daa628;stroke-miterlimit:10;stroke-width: 8 } 
	</style>
	<path id="Layer" class="s0" d="m62.4 24.1v10.8h21.8v16.4h-21.8v23.9h-18.9v-68h43.2v16.9z"/>
	<path id="Layer" fill-rule="evenodd" class="s0" d="m112.3 64.1h-24.1l-3.8 11.1h-20.1l26.7-68h18.3l27.3 68h-20.6zm-12.1-35.8l-7.4 21.1h14.9z"/>
	<path id="Layer" class="s0" d="m114.1 51.2h19.3c0 4.9 3.7 7.2 8 7.2 3.9 0 7.7-2.1 7.7-5.8 0-4.2-5.3-5.5-11.8-7-9.8-2.5-22.4-5.5-22.4-21 0-13.4 9.9-21 25.9-21 16.3 0 25.6 8.3 25.6 22.2h-18.7c0-4.3-3.3-6.3-7.1-6.3-3.4 0-6.6 1.4-6.6 4.6 0 3.8 5.1 5.1 11.5 6.7 10.1 2.6 23.1 5.9 23.1 21.5 0 14.8-11.4 22.5-27.2 22.5-16.6 0-27.3-8.8-27.3-23.6z"/>
	<path id="Layer" class="s0" d="m99.2 100.2h-18.5v51.1h-18.8v-51.1h-18.4v-16.9h55.7c0 0 0 16.9 0 16.9z"/>
	<path id="Layer" fill-rule="evenodd" class="s0" d="m124.1 130.5h-6.8v20.8h-18.7v-68h29.4c14.7 0 25.3 9.9 25.3 24.1 0 8.3-4.1 15.1-10.8 19.2l13.5 24.7h-20.9zm-6.8-15.8h8.6c5.2 0 8.2-3.1 8.2-7.4 0-4.2-3-7.4-8.2-7.4h-8.6z"/>
	<path id="Layer" fill-rule="evenodd" class="s0" d="m183.3 140.2h-24.1l-3.8 11.1h-20.1l26.7-68h18.3l27.3 68h-20.6zm-12.1-35.7l-7.4 21h14.9z"/>
	<path id="Layer" class="s0" d="m215.6 152c-20.7 0-36.2-15.3-36.2-35.6 0-20.5 15.5-35.8 36.2-35.8 17.8 0 31.6 11.7 34.3 29h-18.9c-2.4-7-8.2-11.5-15.4-11.5-9.6 0-16.7 7.7-16.7 18.3 0 10.4 7.1 18.1 16.7 18.1 7.5 0 13.5-4.9 15.4-12.5h19.1c-2.6 17.9-16.4 30-34.5 30z"/>
	<path id="Layer" class="s0" d="m275.3 151.3l-19.5-30v30h-18.7v-68h18.7v28.7l18-28.7h21.7l-21.8 32.9 23.8 35.1z"/>
	<path id="Layer" class="s1" d="m20.5 118.3l290.3 0.6"/>
</svg>